<svg xmlns="http://www.w3.org/2000/svg" xmlns:xlink="http://www.w3.org/1999/xlink" width="2000" zoomAndPan="magnify" viewBox="0 0 1500 1499.999933" height="2000" preserveAspectRatio="xMidYMid meet" version="1.0"><defs><g/><clipPath id="af93084f27"><rect x="0" width="548" y="0" height="573"/></clipPath></defs><g transform="matrix(1, 0, 0, 1, 476, 510)"><g clip-path="url(#af93084f27)"><g fill="#7a6200" fill-opacity="1"><g transform="translate(2.299881, 435.419134)"><g><path d="M 184.15625 -422.3125 L 184.15625 -433.125 L 294.859375 -433.125 L 294.859375 -422.3125 C 294.859375 -422.3125 292.335938 -422.3125 287.296875 -422.3125 C 282.265625 -422.3125 276.503906 -421.59375 270.015625 -420.15625 C 263.535156 -418.71875 257.773438 -416.285156 252.734375 -412.859375 C 247.703125 -409.441406 245.1875 -404.132812 245.1875 -396.9375 L 244.640625 0 L 234.375 0 L 70.75 -380.734375 L 71.28125 -36.1875 C 71.28125 -29.34375 73.800781 -24.117188 78.84375 -20.515625 C 83.882812 -16.921875 89.644531 -14.492188 96.125 -13.234375 C 102.601562 -11.972656 108.363281 -11.25 113.40625 -11.0625 C 118.445312 -10.882812 120.96875 -10.796875 120.96875 -10.796875 L 120.96875 0 L 10.265625 0 L 10.265625 -10.796875 C 10.265625 -10.796875 12.78125 -10.882812 17.8125 -11.0625 C 22.851562 -11.25 28.613281 -11.972656 35.09375 -13.234375 C 41.582031 -14.492188 47.34375 -16.921875 52.375 -20.515625 C 57.414062 -24.117188 59.9375 -29.34375 59.9375 -36.1875 L 59.9375 -399.640625 C 59.9375 -405.753906 57.503906 -410.34375 52.640625 -413.40625 C 47.785156 -416.46875 42.023438 -418.628906 35.359375 -419.890625 C 28.703125 -421.148438 22.941406 -421.867188 18.078125 -422.046875 C 13.222656 -422.222656 10.796875 -422.3125 10.796875 -422.3125 L 10.796875 -433.125 L 71.28125 -433.125 L 233.84375 -54.546875 L 233.84375 -396.9375 C 233.84375 -404.132812 231.320312 -409.441406 226.28125 -412.859375 C 221.238281 -416.285156 215.476562 -418.71875 209 -420.15625 C 202.519531 -421.59375 196.757812 -422.3125 191.71875 -422.3125 C 186.675781 -422.3125 184.15625 -422.3125 184.15625 -422.3125 Z M 184.15625 -422.3125 "/></g></g></g><g fill="#7a6200" fill-opacity="1"><g transform="translate(306.339016, 435.419134)"><g><path d="M 15.125 -432.578125 L 217.09375 -432.578125 L 225.734375 -280.28125 L 217.09375 -280.28125 C 217.09375 -280.28125 216.910156 -283.703125 216.546875 -290.546875 C 216.191406 -297.390625 215.472656 -306.207031 214.390625 -317 C 213.316406 -327.800781 211.695312 -339.144531 209.53125 -351.03125 C 207.375 -362.914062 204.492188 -374.253906 200.890625 -385.046875 C 197.296875 -395.847656 192.617188 -404.671875 186.859375 -411.515625 C 181.097656 -418.359375 174.253906 -421.78125 166.328125 -421.78125 L 88.03125 -421.78125 L 88.03125 -231.6875 L 120.4375 -231.6875 C 126.550781 -231.6875 131.585938 -234.113281 135.546875 -238.96875 C 139.515625 -243.832031 142.488281 -249.773438 144.46875 -256.796875 C 146.445312 -263.816406 147.796875 -270.835938 148.515625 -277.859375 C 149.234375 -284.878906 149.59375 -290.816406 149.59375 -295.671875 C 149.59375 -300.535156 149.59375 -302.96875 149.59375 -302.96875 L 158.234375 -302.96875 L 158.234375 -150.671875 L 149.59375 -150.671875 C 149.59375 -150.671875 149.5 -154.269531 149.3125 -161.46875 C 149.132812 -168.675781 148.328125 -176.957031 146.890625 -186.3125 C 145.453125 -195.675781 142.660156 -203.957031 138.515625 -211.15625 C 134.378906 -218.351562 128.53125 -221.953125 120.96875 -221.953125 L 88.03125 -221.953125 L 88.03125 -36.1875 C 88.03125 -29.34375 90.550781 -24.117188 95.59375 -20.515625 C 100.632812 -16.921875 106.394531 -14.492188 112.875 -13.234375 C 119.351562 -11.972656 125.113281 -11.25 130.15625 -11.0625 C 135.195312 -10.882812 137.71875 -10.796875 137.71875 -10.796875 L 137.71875 0 L 15.125 0 L 15.125 -10.796875 C 15.125 -10.796875 17.550781 -10.882812 22.40625 -11.0625 C 27.269531 -11.25 32.941406 -11.878906 39.421875 -12.953125 C 45.898438 -14.035156 51.660156 -16.285156 56.703125 -19.703125 C 61.742188 -23.128906 64.445312 -28.082031 64.8125 -34.5625 L 64.8125 -398.015625 C 64.445312 -404.492188 61.742188 -409.441406 56.703125 -412.859375 C 51.660156 -416.285156 45.898438 -418.628906 39.421875 -419.890625 C 32.941406 -421.148438 27.269531 -421.867188 22.40625 -422.046875 C 17.550781 -422.222656 15.125 -422.3125 15.125 -422.3125 Z M 15.125 -432.578125 "/></g></g></g></g></g><g fill="#ffffff" fill-opacity="1"><g transform="translate(31.848367, 825.749909)"><g><path d="M 43.863281 -133.984375 L 43.863281 -77.953125 L 38.386719 -77.953125 L 38.386719 -83.425781 L 127.910156 -83.425781 L 127.910156 -55.582031 L 38.386719 -55.582031 L 38.386719 -61.058594 L 43.863281 -61.058594 L 43.863281 5.476562 L 12.488281 5.476562 L 12.488281 -156.140625 L 130.476562 -156.140625 L 130.476562 -128.507812 L 38.386719 -128.507812 L 38.386719 -133.984375 Z M 32.914062 -139.457031 L 125 -139.457031 L 125 -133.984375 L 119.527344 -133.984375 L 119.527344 -150.664062 L 125 -150.664062 L 125 -145.1875 L 17.964844 -145.1875 L 17.964844 -150.664062 L 23.4375 -150.664062 L 23.4375 0 L 17.964844 0 L 17.964844 -5.476562 L 38.386719 -5.476562 L 38.386719 0 L 32.914062 0 L 32.914062 -66.53125 L 122.433594 -66.53125 L 122.433594 -61.058594 L 116.960938 -61.058594 L 116.960938 -77.953125 L 122.433594 -77.953125 L 122.433594 -72.476562 L 32.914062 -72.476562 Z M 32.914062 -139.457031 "/></g></g></g><g fill="#ffffff" fill-opacity="1"><g transform="translate(165.617695, 825.749909)"><g><path d="M 34.988281 -53.785156 C 34.988281 -41.757812 37.359375 -32.636719 42.101562 -26.417969 C 44.28125 -23.554688 46.957031 -21.410156 50.121094 -19.992188 C 53.417969 -18.511719 57.3125 -17.773438 61.804688 -17.773438 C 69.039062 -17.773438 74.710938 -19.140625 78.816406 -21.878906 C 82.824219 -24.546875 85.515625 -27.871094 86.894531 -31.84375 L 88.589844 -36.730469 L 116.191406 -28.867188 L 114.082031 -23.296875 C 110.164062 -12.957031 103.714844 -5.183594 94.734375 0.03125 C 86.027344 5.085938 75.050781 7.613281 61.804688 7.613281 C 43.042969 7.613281 28.644531 1.894531 18.609375 -9.542969 C 8.753906 -20.769531 3.828125 -37.121094 3.828125 -58.597656 C 3.828125 -79.078125 8.753906 -94.929688 18.609375 -106.15625 C 28.644531 -117.59375 42.792969 -123.3125 61.058594 -123.3125 C 79.773438 -123.3125 93.929688 -117.527344 103.523438 -105.960938 C 112.867188 -94.699219 117.539062 -78.164062 117.539062 -56.351562 L 117.539062 -48.3125 L 29.511719 -48.3125 L 29.511719 -53.785156 Z M 24.039062 -59.261719 L 112.0625 -59.261719 L 112.0625 -53.785156 L 106.585938 -53.785156 L 106.585938 -56.351562 C 106.585938 -75.53125 102.757812 -89.734375 95.097656 -98.96875 C 87.691406 -107.898438 76.34375 -112.363281 61.058594 -112.363281 C 46.101562 -112.363281 34.695312 -107.886719 26.835938 -98.933594 C 18.796875 -89.773438 14.777344 -76.328125 14.777344 -58.597656 C 14.777344 -39.871094 18.796875 -25.925781 26.835938 -16.765625 C 34.695312 -7.8125 46.351562 -3.335938 61.804688 -3.335938 C 73.085938 -3.335938 82.226562 -5.371094 89.238281 -9.441406 C 95.976562 -13.351562 100.84375 -19.261719 103.84375 -27.175781 L 108.960938 -25.234375 L 107.460938 -19.96875 L 90.566406 -24.78125 L 92.066406 -30.046875 L 97.238281 -28.25 C 95.054688 -21.960938 90.9375 -16.796875 84.890625 -12.765625 C 78.945312 -8.804688 71.25 -6.820312 61.804688 -6.820312 C 55.75 -6.820312 50.359375 -7.882812 45.636719 -10.003906 C 40.78125 -12.183594 36.699219 -15.441406 33.390625 -19.777344 C 27.15625 -27.957031 24.039062 -39.292969 24.039062 -53.785156 Z M 86.71875 -68.0625 C 85.757812 -79.019531 83.128906 -86.835938 78.835938 -91.519531 C 74.789062 -95.933594 68.753906 -98.140625 60.734375 -98.140625 C 53.054688 -98.140625 47.03125 -95.644531 42.671875 -90.65625 C 38.066406 -85.386719 35.574219 -77.945312 35.195312 -68.328125 L 29.726562 -68.542969 L 29.726562 -74.015625 L 92.171875 -74.015625 L 92.171875 -68.542969 Z M 98.148438 -63.066406 L 24.03125 -63.066406 L 24.253906 -68.757812 C 24.734375 -80.953125 28.125 -90.652344 34.425781 -97.863281 C 40.96875 -105.347656 49.742188 -109.089844 60.734375 -109.089844 C 71.964844 -109.089844 80.6875 -105.699219 86.90625 -98.921875 C 92.875 -92.414062 96.449219 -82.445312 97.628906 -69.019531 Z M 98.148438 -63.066406 "/></g></g></g><g fill="#ffffff" fill-opacity="1"><g transform="translate(287.410871, 825.749909)"><g><path d="M 9.28125 -164.160156 L 39.480469 -164.160156 L 39.480469 5.476562 L 9.28125 5.476562 Z M 20.230469 -153.210938 L 20.230469 -5.476562 L 28.527344 -5.476562 L 28.527344 -153.210938 Z M 20.230469 -153.210938 "/></g></g></g><g fill="#ffffff" fill-opacity="1"><g transform="translate(336.063981, 825.749909)"><g><path d="M 9.175781 -140.292969 L 9.175781 -164.160156 L 39.371094 -164.160156 L 39.371094 -134.816406 L 9.175781 -134.816406 Z M 20.125 -140.292969 L 14.648438 -140.292969 L 14.648438 -145.765625 L 33.898438 -145.765625 L 33.898438 -140.292969 L 28.421875 -140.292969 L 28.421875 -158.683594 L 33.898438 -158.683594 L 33.898438 -153.210938 L 14.648438 -153.210938 L 14.648438 -158.683594 L 20.125 -158.683594 Z M 9.175781 0 L 9.175781 -121.171875 L 39.371094 -121.171875 L 39.371094 5.476562 L 9.175781 5.476562 Z M 20.125 0 L 14.648438 0 L 14.648438 -5.476562 L 33.898438 -5.476562 L 33.898438 0 L 28.421875 0 L 28.421875 -115.699219 L 33.898438 -115.699219 L 33.898438 -110.222656 L 14.648438 -110.222656 L 14.648438 -115.699219 L 20.125 -115.699219 Z M 20.125 0 "/></g></g></g><g fill="#ffffff" fill-opacity="1"><g transform="translate(384.717091, 825.749909)"><g><path d="M 34.878906 -58.382812 C 34.878906 -44.074219 37.007812 -33.667969 41.257812 -27.164062 C 43.148438 -24.273438 45.484375 -22.121094 48.269531 -20.707031 C 51.144531 -19.25 54.585938 -18.519531 58.597656 -18.519531 C 64.152344 -18.519531 68.726562 -19.96875 72.324219 -22.867188 C 75.796875 -25.667969 77.96875 -30.199219 78.839844 -36.46875 L 79.539062 -41.511719 L 109.929688 -39.507812 L 109.148438 -33.699219 C 107.460938 -21.167969 102.078125 -11.132812 92.996094 -3.59375 C 84 3.878906 72.710938 7.613281 59.132812 7.613281 C 41.238281 7.613281 27.488281 1.839844 17.875 -9.703125 C 8.511719 -20.945312 3.828125 -37.03125 3.828125 -57.957031 C 3.828125 -78.742188 8.53125 -94.757812 17.933594 -106.003906 C 27.582031 -117.542969 41.246094 -123.3125 58.917969 -123.3125 C 72.015625 -123.3125 82.960938 -119.855469 91.757812 -112.945312 C 100.648438 -105.964844 106.214844 -96.414062 108.464844 -84.296875 L 109.574219 -78.300781 L 78.667969 -75.960938 L 77.886719 -80.960938 C 77.085938 -86.125 75.113281 -90.167969 71.976562 -93.082031 C 68.964844 -95.882812 64.433594 -97.285156 58.382812 -97.285156 C 54.085938 -97.285156 50.453125 -96.605469 47.488281 -95.246094 C 44.730469 -93.980469 42.5 -92.078125 40.789062 -89.542969 C 36.851562 -83.695312 34.878906 -73.308594 34.878906 -58.382812 Z M 23.929688 -58.382812 C 23.929688 -75.539062 26.523438 -87.964844 31.707031 -95.660156 C 34.5625 -99.898438 38.300781 -103.074219 42.921875 -105.195312 C 47.335938 -107.222656 52.488281 -108.234375 58.382812 -108.234375 C 67.304688 -108.234375 74.320312 -105.855469 79.433594 -101.101562 C 84.425781 -96.460938 87.515625 -90.308594 88.707031 -82.644531 L 83.296875 -81.800781 L 82.886719 -87.261719 L 102.667969 -88.757812 L 103.082031 -83.296875 L 97.699219 -82.300781 C 95.953125 -91.710938 91.71875 -99.054688 84.996094 -104.335938 C 78.183594 -109.6875 69.488281 -112.363281 58.917969 -112.363281 C 44.65625 -112.363281 33.792969 -107.902344 26.335938 -98.980469 C 18.628906 -89.765625 14.777344 -76.09375 14.777344 -57.957031 C 14.777344 -39.671875 18.613281 -25.925781 26.289062 -16.710938 C 33.710938 -7.792969 44.660156 -3.335938 59.132812 -3.335938 C 70.074219 -3.335938 79.03125 -6.230469 86.003906 -12.019531 C 92.890625 -17.738281 96.988281 -25.453125 98.296875 -35.160156 L 103.722656 -34.429688 L 103.363281 -28.96875 L 83.902344 -30.25 L 84.261719 -35.714844 L 89.683594 -34.960938 C 88.414062 -25.832031 84.917969 -18.957031 79.195312 -14.34375 C 73.59375 -9.828125 66.730469 -7.570312 58.597656 -7.570312 C 52.839844 -7.570312 47.746094 -8.695312 43.316406 -10.941406 C 38.792969 -13.238281 35.050781 -16.648438 32.09375 -21.171875 C 26.652344 -29.492188 23.929688 -41.898438 23.929688 -58.382812 Z M 23.929688 -58.382812 "/></g></g></g><g fill="#ffffff" fill-opacity="1"><g transform="translate(494.213351, 825.749909)"><g><path d="M 9.175781 -140.292969 L 9.175781 -164.160156 L 39.371094 -164.160156 L 39.371094 -134.816406 L 9.175781 -134.816406 Z M 20.125 -140.292969 L 14.648438 -140.292969 L 14.648438 -145.765625 L 33.898438 -145.765625 L 33.898438 -140.292969 L 28.421875 -140.292969 L 28.421875 -158.683594 L 33.898438 -158.683594 L 33.898438 -153.210938 L 14.648438 -153.210938 L 14.648438 -158.683594 L 20.125 -158.683594 Z M 9.175781 0 L 9.175781 -121.171875 L 39.371094 -121.171875 L 39.371094 5.476562 L 9.175781 5.476562 Z M 20.125 0 L 14.648438 0 L 14.648438 -5.476562 L 33.898438 -5.476562 L 33.898438 0 L 28.421875 0 L 28.421875 -115.699219 L 33.898438 -115.699219 L 33.898438 -110.222656 L 14.648438 -110.222656 L 14.648438 -115.699219 L 20.125 -115.699219 Z M 20.125 0 "/></g></g></g><g fill="#ffffff" fill-opacity="1"><g transform="translate(542.866439, 825.749909)"><g><path d="M 44.269531 7.613281 C 31.085938 7.613281 21.03125 3.984375 14.109375 -3.277344 C 7.253906 -10.46875 3.828125 -20.136719 3.828125 -32.292969 C 3.828125 -46.003906 8.4375 -56.613281 17.660156 -64.125 C 26.507812 -71.328125 40.320312 -75.160156 59.105469 -75.621094 L 85.132812 -76.046875 L 85.222656 -70.574219 L 79.75 -70.574219 L 79.75 -76.882812 C 79.75 -84.800781 78.273438 -90.257812 75.328125 -93.253906 C 72.410156 -96.226562 67.4375 -97.710938 60.414062 -97.710938 C 53 -97.710938 47.816406 -96.613281 44.867188 -94.414062 C 42.199219 -92.425781 40.566406 -88.996094 39.972656 -84.132812 L 39.328125 -78.863281 L 8.117188 -81.6875 L 9.027344 -87.464844 C 10.914062 -99.445312 16.386719 -108.480469 25.441406 -114.574219 C 34.097656 -120.398438 45.898438 -123.3125 60.84375 -123.3125 C 76.796875 -123.3125 88.964844 -119.503906 97.351562 -111.894531 C 105.890625 -104.140625 110.160156 -93.148438 110.160156 -78.914062 L 110.160156 -29.085938 C 110.160156 -24.273438 110.703125 -20.816406 111.789062 -18.71875 C 111.996094 -18.320312 112.289062 -18.027344 112.664062 -17.835938 C 113.3125 -17.507812 114.253906 -17.34375 115.484375 -17.34375 C 116.953125 -17.34375 118.679688 -17.554688 120.65625 -17.972656 L 127.269531 -19.375 L 127.269531 3.695312 L 123.046875 4.6875 C 117.789062 5.925781 112.414062 6.542969 106.929688 6.542969 C 98.132812 6.542969 91.570312 4.042969 87.234375 -0.957031 C 83.171875 -5.648438 80.890625 -12.609375 80.398438 -21.839844 L 85.863281 -22.132812 L 85.863281 -16.660156 L 85.222656 -16.660156 L 85.222656 -22.132812 L 90.007812 -19.472656 C 84.585938 -9.730469 78.167969 -2.773438 70.746094 1.402344 C 63.390625 5.542969 54.5625 7.613281 44.269531 7.613281 Z M 44.269531 -3.335938 C 52.652344 -3.335938 59.6875 -4.9375 65.375 -8.140625 C 71 -11.304688 76.019531 -16.859375 80.4375 -24.796875 L 82.003906 -27.609375 L 91.054688 -27.609375 L 91.332031 -22.425781 C 91.691406 -15.691406 93.085938 -10.925781 95.507812 -8.128906 C 97.660156 -5.648438 101.46875 -4.40625 106.929688 -4.40625 C 111.566406 -4.40625 116.105469 -4.925781 120.539062 -5.972656 L 121.792969 -0.640625 L 116.316406 -0.640625 L 116.316406 -12.617188 L 121.792969 -12.617188 L 122.929688 -7.261719 C 120.203125 -6.683594 117.71875 -6.394531 115.484375 -6.394531 C 112.511719 -6.394531 109.921875 -6.953125 107.71875 -8.066406 C 105.242188 -9.320312 103.359375 -11.191406 102.070312 -13.679688 C 100.164062 -17.355469 99.210938 -22.492188 99.210938 -29.085938 L 99.210938 -78.914062 C 99.210938 -89.914062 96.136719 -98.207031 89.992188 -103.785156 C 83.691406 -109.503906 73.976562 -112.363281 60.84375 -112.363281 C 48.128906 -112.363281 38.363281 -110.070312 31.554688 -105.488281 C 25.140625 -101.171875 21.234375 -94.597656 19.84375 -85.761719 L 14.433594 -86.613281 L 14.929688 -92.066406 L 35.03125 -90.25 L 34.539062 -84.796875 L 29.105469 -85.460938 C 30.078125 -93.425781 33.152344 -99.335938 38.324219 -103.191406 C 43.214844 -106.839844 50.578125 -108.664062 60.414062 -108.664062 C 70.5 -108.664062 78.074219 -106.085938 83.140625 -100.929688 C 88.179688 -95.800781 90.699219 -87.785156 90.699219 -76.882812 L 90.699219 -65.1875 L 59.371094 -64.671875 C 43.085938 -64.277344 31.484375 -61.261719 24.574219 -55.636719 C 18.042969 -50.316406 14.777344 -42.535156 14.777344 -32.292969 C 14.777344 -23.0625 17.195312 -15.910156 22.035156 -10.835938 C 26.800781 -5.835938 34.210938 -3.335938 44.269531 -3.335938 Z M 48.652344 -17.773438 C 54.722656 -17.773438 60.074219 -19.125 64.710938 -21.835938 C 69.351562 -24.546875 73.015625 -28.273438 75.703125 -33.015625 C 78.398438 -37.773438 79.75 -42.628906 79.75 -47.582031 L 79.75 -57.101562 L 85.222656 -57.101562 L 85.335938 -51.625 L 64.269531 -51.199219 C 55.816406 -51.066406 49.546875 -50.25 45.457031 -48.753906 C 41.863281 -47.4375 39.148438 -45.464844 37.3125 -42.839844 C 35.476562 -40.21875 34.558594 -36.597656 34.558594 -31.972656 C 34.558594 -27.199219 35.726562 -23.636719 38.054688 -21.28125 C 40.371094 -18.941406 43.902344 -17.773438 48.652344 -17.773438 Z M 48.652344 -6.820312 C 40.855469 -6.820312 34.730469 -9.074219 30.273438 -13.578125 C 25.832031 -18.066406 23.609375 -24.199219 23.609375 -31.972656 C 23.609375 -38.898438 25.1875 -44.613281 28.34375 -49.121094 C 31.496094 -53.625 35.945312 -56.929688 41.691406 -59.035156 C 46.941406 -60.957031 54.390625 -61.996094 64.046875 -62.148438 L 90.699219 -62.6875 L 90.699219 -47.582031 C 90.699219 -40.703125 88.875 -34.046875 85.226562 -27.613281 C 81.570312 -21.164062 76.574219 -16.085938 70.234375 -12.382812 C 63.894531 -8.675781 56.699219 -6.820312 48.652344 -6.820312 Z M 48.652344 -6.820312 "/></g></g></g><g fill="#ffffff" fill-opacity="1"><g transform="translate(664.659626, 825.749909)"><g/></g></g><g fill="#ffffff" fill-opacity="1"><g transform="translate(725.50273, 825.749909)"><g><path d="M 111.0625 2.914062 L 30.4375 -125.402344 L 35.074219 -128.316406 L 40.539062 -128.597656 L 41.074219 -118.226562 L 41.617188 -100.167969 L 41.617188 5.476562 L 12.488281 5.476562 L 12.488281 -156.140625 L 44.722656 -156.140625 L 127.8125 -24.414062 L 123.183594 -21.492188 L 117.71875 -21.160156 C 116.855469 -35.242188 116.425781 -45.476562 116.425781 -51.859375 L 116.425781 -156.140625 L 145.765625 -156.140625 L 145.765625 5.476562 L 112.671875 5.476562 Z M 120.332031 -2.914062 L 115.699219 0 L 115.699219 -5.476562 L 140.292969 -5.476562 L 140.292969 0 L 134.816406 0 L 134.816406 -150.664062 L 140.292969 -150.664062 L 140.292969 -145.1875 L 121.898438 -145.1875 L 121.898438 -150.664062 L 127.375 -150.664062 L 127.375 -51.859375 C 127.375 -45.699219 127.800781 -35.6875 128.648438 -21.828125 L 118.550781 -18.570312 L 37.070312 -147.742188 L 41.703125 -150.664062 L 41.703125 -145.1875 L 17.964844 -145.1875 L 17.964844 -150.664062 L 23.4375 -150.664062 L 23.4375 0 L 17.964844 0 L 17.964844 -5.476562 L 36.140625 -5.476562 L 36.140625 0 L 30.667969 0 L 30.667969 -100.085938 L 36.140625 -100.085938 L 30.667969 -99.921875 L 30.140625 -117.660156 L 28.523438 -149.03125 Z M 120.332031 -2.914062 "/></g></g></g><g fill="#ffffff" fill-opacity="1"><g transform="translate(883.652096, 825.749909)"><g><path d="M 9.175781 -140.292969 L 9.175781 -164.160156 L 39.371094 -164.160156 L 39.371094 -134.816406 L 9.175781 -134.816406 Z M 20.125 -140.292969 L 14.648438 -140.292969 L 14.648438 -145.765625 L 33.898438 -145.765625 L 33.898438 -140.292969 L 28.421875 -140.292969 L 28.421875 -158.683594 L 33.898438 -158.683594 L 33.898438 -153.210938 L 14.648438 -153.210938 L 14.648438 -158.683594 L 20.125 -158.683594 Z M 9.175781 0 L 9.175781 -121.171875 L 39.371094 -121.171875 L 39.371094 5.476562 L 9.175781 5.476562 Z M 20.125 0 L 14.648438 0 L 14.648438 -5.476562 L 33.898438 -5.476562 L 33.898438 0 L 28.421875 0 L 28.421875 -115.699219 L 33.898438 -115.699219 L 33.898438 -110.222656 L 14.648438 -110.222656 L 14.648438 -115.699219 L 20.125 -115.699219 Z M 20.125 0 "/></g></g></g><g fill="#ffffff" fill-opacity="1"><g transform="translate(932.305138, 825.749909)"><g><path d="M 34.988281 -53.785156 C 34.988281 -41.757812 37.359375 -32.636719 42.101562 -26.417969 C 44.28125 -23.554688 46.957031 -21.410156 50.121094 -19.992188 C 53.417969 -18.511719 57.3125 -17.773438 61.804688 -17.773438 C 69.039062 -17.773438 74.710938 -19.140625 78.816406 -21.878906 C 82.824219 -24.546875 85.515625 -27.871094 86.894531 -31.84375 L 88.589844 -36.730469 L 116.191406 -28.867188 L 114.082031 -23.296875 C 110.164062 -12.957031 103.714844 -5.183594 94.734375 0.03125 C 86.027344 5.085938 75.050781 7.613281 61.804688 7.613281 C 43.042969 7.613281 28.644531 1.894531 18.609375 -9.542969 C 8.753906 -20.769531 3.828125 -37.121094 3.828125 -58.597656 C 3.828125 -79.078125 8.753906 -94.929688 18.609375 -106.15625 C 28.644531 -117.59375 42.792969 -123.3125 61.058594 -123.3125 C 79.773438 -123.3125 93.929688 -117.527344 103.523438 -105.960938 C 112.867188 -94.699219 117.539062 -78.164062 117.539062 -56.351562 L 117.539062 -48.3125 L 29.511719 -48.3125 L 29.511719 -53.785156 Z M 24.039062 -59.261719 L 112.0625 -59.261719 L 112.0625 -53.785156 L 106.585938 -53.785156 L 106.585938 -56.351562 C 106.585938 -75.53125 102.757812 -89.734375 95.097656 -98.96875 C 87.691406 -107.898438 76.34375 -112.363281 61.058594 -112.363281 C 46.101562 -112.363281 34.695312 -107.886719 26.835938 -98.933594 C 18.796875 -89.773438 14.777344 -76.328125 14.777344 -58.597656 C 14.777344 -39.871094 18.796875 -25.925781 26.835938 -16.765625 C 34.695312 -7.8125 46.351562 -3.335938 61.804688 -3.335938 C 73.085938 -3.335938 82.226562 -5.371094 89.238281 -9.441406 C 95.976562 -13.351562 100.84375 -19.261719 103.84375 -27.175781 L 108.960938 -25.234375 L 107.460938 -19.96875 L 90.566406 -24.78125 L 92.066406 -30.046875 L 97.238281 -28.25 C 95.054688 -21.960938 90.9375 -16.796875 84.890625 -12.765625 C 78.945312 -8.804688 71.25 -6.820312 61.804688 -6.820312 C 55.75 -6.820312 50.359375 -7.882812 45.636719 -10.003906 C 40.78125 -12.183594 36.699219 -15.441406 33.390625 -19.777344 C 27.15625 -27.957031 24.039062 -39.292969 24.039062 -53.785156 Z M 86.71875 -68.0625 C 85.757812 -79.019531 83.128906 -86.835938 78.835938 -91.519531 C 74.789062 -95.933594 68.753906 -98.140625 60.734375 -98.140625 C 53.054688 -98.140625 47.03125 -95.644531 42.671875 -90.65625 C 38.066406 -85.386719 35.574219 -77.945312 35.195312 -68.328125 L 29.726562 -68.542969 L 29.726562 -74.015625 L 92.171875 -74.015625 L 92.171875 -68.542969 Z M 98.148438 -63.066406 L 24.03125 -63.066406 L 24.253906 -68.757812 C 24.734375 -80.953125 28.125 -90.652344 34.425781 -97.863281 C 40.96875 -105.347656 49.742188 -109.089844 60.734375 -109.089844 C 71.964844 -109.089844 80.6875 -105.699219 86.90625 -98.921875 C 92.875 -92.414062 96.449219 -82.445312 97.628906 -69.019531 Z M 98.148438 -63.066406 "/></g></g></g><g fill="#ffffff" fill-opacity="1"><g transform="translate(1054.098371, 825.749909)"><g><path d="M 9.28125 -164.160156 L 39.480469 -164.160156 L 39.480469 5.476562 L 9.28125 5.476562 Z M 20.230469 -153.210938 L 20.230469 -5.476562 L 28.527344 -5.476562 L 28.527344 -153.210938 Z M 20.230469 -153.210938 "/></g></g></g><g fill="#ffffff" fill-opacity="1"><g transform="translate(1102.751504, 825.749909)"><g><path d="M 44.269531 7.613281 C 31.085938 7.613281 21.03125 3.984375 14.109375 -3.277344 C 7.253906 -10.46875 3.828125 -20.136719 3.828125 -32.292969 C 3.828125 -46.003906 8.4375 -56.613281 17.660156 -64.125 C 26.507812 -71.328125 40.320312 -75.160156 59.105469 -75.621094 L 85.132812 -76.046875 L 85.222656 -70.574219 L 79.75 -70.574219 L 79.75 -76.882812 C 79.75 -84.800781 78.273438 -90.257812 75.328125 -93.253906 C 72.410156 -96.226562 67.4375 -97.710938 60.414062 -97.710938 C 53 -97.710938 47.816406 -96.613281 44.867188 -94.414062 C 42.199219 -92.425781 40.566406 -88.996094 39.972656 -84.132812 L 39.328125 -78.863281 L 8.117188 -81.6875 L 9.027344 -87.464844 C 10.914062 -99.445312 16.386719 -108.480469 25.441406 -114.574219 C 34.097656 -120.398438 45.898438 -123.3125 60.84375 -123.3125 C 76.796875 -123.3125 88.964844 -119.503906 97.351562 -111.894531 C 105.890625 -104.140625 110.160156 -93.148438 110.160156 -78.914062 L 110.160156 -29.085938 C 110.160156 -24.273438 110.703125 -20.816406 111.789062 -18.71875 C 111.996094 -18.320312 112.289062 -18.027344 112.664062 -17.835938 C 113.3125 -17.507812 114.253906 -17.34375 115.484375 -17.34375 C 116.953125 -17.34375 118.679688 -17.554688 120.65625 -17.972656 L 127.269531 -19.375 L 127.269531 3.695312 L 123.046875 4.6875 C 117.789062 5.925781 112.414062 6.542969 106.929688 6.542969 C 98.132812 6.542969 91.570312 4.042969 87.234375 -0.957031 C 83.171875 -5.648438 80.890625 -12.609375 80.398438 -21.839844 L 85.863281 -22.132812 L 85.863281 -16.660156 L 85.222656 -16.660156 L 85.222656 -22.132812 L 90.007812 -19.472656 C 84.585938 -9.730469 78.167969 -2.773438 70.746094 1.402344 C 63.390625 5.542969 54.5625 7.613281 44.269531 7.613281 Z M 44.269531 -3.335938 C 52.652344 -3.335938 59.6875 -4.9375 65.375 -8.140625 C 71 -11.304688 76.019531 -16.859375 80.4375 -24.796875 L 82.003906 -27.609375 L 91.054688 -27.609375 L 91.332031 -22.425781 C 91.691406 -15.691406 93.085938 -10.925781 95.507812 -8.128906 C 97.660156 -5.648438 101.46875 -4.40625 106.929688 -4.40625 C 111.566406 -4.40625 116.105469 -4.925781 120.539062 -5.972656 L 121.792969 -0.640625 L 116.316406 -0.640625 L 116.316406 -12.617188 L 121.792969 -12.617188 L 122.929688 -7.261719 C 120.203125 -6.683594 117.71875 -6.394531 115.484375 -6.394531 C 112.511719 -6.394531 109.921875 -6.953125 107.71875 -8.066406 C 105.242188 -9.320312 103.359375 -11.191406 102.070312 -13.679688 C 100.164062 -17.355469 99.210938 -22.492188 99.210938 -29.085938 L 99.210938 -78.914062 C 99.210938 -89.914062 96.136719 -98.207031 89.992188 -103.785156 C 83.691406 -109.503906 73.976562 -112.363281 60.84375 -112.363281 C 48.128906 -112.363281 38.363281 -110.070312 31.554688 -105.488281 C 25.140625 -101.171875 21.234375 -94.597656 19.84375 -85.761719 L 14.433594 -86.613281 L 14.929688 -92.066406 L 35.03125 -90.25 L 34.539062 -84.796875 L 29.105469 -85.460938 C 30.078125 -93.425781 33.152344 -99.335938 38.324219 -103.191406 C 43.214844 -106.839844 50.578125 -108.664062 60.414062 -108.664062 C 70.5 -108.664062 78.074219 -106.085938 83.140625 -100.929688 C 88.179688 -95.800781 90.699219 -87.785156 90.699219 -76.882812 L 90.699219 -65.1875 L 59.371094 -64.671875 C 43.085938 -64.277344 31.484375 -61.261719 24.574219 -55.636719 C 18.042969 -50.316406 14.777344 -42.535156 14.777344 -32.292969 C 14.777344 -23.0625 17.195312 -15.910156 22.035156 -10.835938 C 26.800781 -5.835938 34.210938 -3.335938 44.269531 -3.335938 Z M 48.652344 -17.773438 C 54.722656 -17.773438 60.074219 -19.125 64.710938 -21.835938 C 69.351562 -24.546875 73.015625 -28.273438 75.703125 -33.015625 C 78.398438 -37.773438 79.75 -42.628906 79.75 -47.582031 L 79.75 -57.101562 L 85.222656 -57.101562 L 85.335938 -51.625 L 64.269531 -51.199219 C 55.816406 -51.066406 49.546875 -50.25 45.457031 -48.753906 C 41.863281 -47.4375 39.148438 -45.464844 37.3125 -42.839844 C 35.476562 -40.21875 34.558594 -36.597656 34.558594 -31.972656 C 34.558594 -27.199219 35.726562 -23.636719 38.054688 -21.28125 C 40.371094 -18.941406 43.902344 -17.773438 48.652344 -17.773438 Z M 48.652344 -6.820312 C 40.855469 -6.820312 34.730469 -9.074219 30.273438 -13.578125 C 25.832031 -18.066406 23.609375 -24.199219 23.609375 -31.972656 C 23.609375 -38.898438 25.1875 -44.613281 28.34375 -49.121094 C 31.496094 -53.625 35.945312 -56.929688 41.691406 -59.035156 C 46.941406 -60.957031 54.390625 -61.996094 64.046875 -62.148438 L 90.699219 -62.6875 L 90.699219 -47.582031 C 90.699219 -40.703125 88.875 -34.046875 85.226562 -27.613281 C 81.570312 -21.164062 76.574219 -16.085938 70.234375 -12.382812 C 63.894531 -8.675781 56.699219 -6.820312 48.652344 -6.820312 Z M 48.652344 -6.820312 "/></g></g></g><g fill="#ffffff" fill-opacity="1"><g transform="translate(1224.544646, 825.749909)"><g><path d="M 82.742188 0 L 82.742188 -73.355469 C 82.742188 -80.351562 82.097656 -85.65625 80.8125 -89.269531 C 79.773438 -92.191406 78.207031 -94.242188 76.113281 -95.425781 C 73.671875 -96.808594 69.757812 -97.5 64.371094 -97.5 C 56.800781 -97.5 50.890625 -94.976562 46.636719 -89.929688 C 42.148438 -84.601562 39.90625 -76.976562 39.90625 -67.046875 L 39.90625 5.476562 L 9.710938 5.476562 L 9.710938 -90.996094 C 9.710938 -104.210938 9.511719 -112.1875 9.121094 -114.925781 L 8.230469 -121.171875 L 37.207031 -121.171875 L 38.089844 -116.773438 C 38.214844 -116.144531 38.320312 -114.90625 38.402344 -113.058594 L 38.671875 -107.683594 C 38.777344 -105.613281 38.90625 -101.734375 39.050781 -96.054688 L 33.574219 -95.917969 L 33.574219 -101.390625 L 33.898438 -101.390625 L 33.898438 -95.917969 L 29.105469 -98.566406 C 34.023438 -107.445312 39.828125 -113.796875 46.527344 -117.621094 C 53.179688 -121.414062 61.300781 -123.3125 70.894531 -123.3125 C 85.171875 -123.3125 95.789062 -119.578125 102.753906 -112.105469 C 109.617188 -104.746094 113.046875 -93.078125 113.046875 -77.097656 L 113.046875 5.476562 L 82.742188 5.476562 Z M 93.691406 0 L 88.21875 0 L 88.21875 -5.476562 L 107.570312 -5.476562 L 107.570312 0 L 102.097656 0 L 102.097656 -77.097656 C 102.097656 -90.203125 99.644531 -99.382812 94.746094 -104.640625 C 89.945312 -109.789062 81.996094 -112.363281 70.894531 -112.363281 C 63.238281 -112.363281 56.921875 -110.945312 51.953125 -108.109375 C 47.035156 -105.300781 42.609375 -100.351562 38.6875 -93.265625 L 37.125 -90.441406 L 28.238281 -90.441406 L 28.101562 -95.777344 C 27.960938 -101.359375 27.839844 -105.148438 27.734375 -107.140625 L 27.464844 -112.5625 C 27.40625 -113.851562 27.367188 -114.539062 27.351562 -114.625 L 32.71875 -115.699219 L 32.71875 -110.222656 L 14.542969 -110.222656 L 14.542969 -115.699219 L 19.960938 -116.472656 C 20.425781 -113.222656 20.660156 -104.730469 20.660156 -90.996094 L 20.660156 0 L 15.183594 0 L 15.183594 -5.476562 L 34.429688 -5.476562 L 34.429688 0 L 28.957031 0 L 28.957031 -67.046875 C 28.957031 -79.640625 32.058594 -89.621094 38.265625 -96.984375 C 44.703125 -104.628906 53.40625 -108.449219 64.371094 -108.449219 C 71.675781 -108.449219 77.386719 -107.285156 81.5 -104.960938 C 85.964844 -102.4375 89.175781 -98.429688 91.128906 -92.941406 C 92.839844 -88.140625 93.691406 -81.613281 93.691406 -73.355469 Z M 93.691406 0 "/></g></g></g><g fill="#ffffff" fill-opacity="1"><g transform="translate(1346.337787, 825.749909)"><g><path d="M 92.722656 -16.234375 C 88.648438 -7.761719 83.15625 -1.636719 76.242188 2.132812 C 69.542969 5.785156 61.382812 7.613281 51.753906 7.613281 C 43.652344 7.613281 36.550781 6.21875 30.457031 3.425781 C 24.179688 0.554688 19.035156 -3.746094 15.027344 -9.480469 C 7.488281 -20.261719 3.722656 -36.203125 3.722656 -57.3125 C 3.722656 -78.644531 7.601562 -94.824219 15.355469 -105.855469 C 19.457031 -111.6875 24.601562 -116.066406 30.789062 -119 C 36.851562 -121.875 43.839844 -123.3125 51.753906 -123.3125 C 61.457031 -123.3125 69.644531 -121.484375 76.308594 -117.824219 C 83.140625 -114.078125 88.589844 -108.207031 92.667969 -100.222656 L 87.789062 -97.734375 L 87.789062 -103.207031 L 88.003906 -103.207031 L 88.003906 -97.734375 L 82.527344 -97.644531 L 82.316406 -110.582031 L 82.316406 -164.160156 L 112.511719 -164.160156 L 112.511719 -23.84375 C 112.511719 -12 112.714844 -4.253906 113.121094 -0.605469 L 113.796875 5.476562 L 84.742188 5.476562 L 83.90625 1.007812 C 83.648438 -0.355469 83.390625 -3.21875 83.125 -7.582031 C 82.871094 -11.828125 82.742188 -15.5 82.742188 -18.605469 L 88.21875 -18.605469 L 88.21875 -13.132812 L 87.789062 -13.132812 L 87.789062 -18.605469 Z M 84.347656 -24.082031 L 93.691406 -24.082031 L 93.691406 -18.605469 C 93.691406 -15.722656 93.8125 -12.265625 94.054688 -8.242188 C 94.292969 -4.335938 94.496094 -1.925781 94.667969 -1.007812 L 89.285156 0 L 89.285156 -5.476562 L 107.679688 -5.476562 L 107.679688 0 L 102.238281 0.605469 C 101.785156 -3.445312 101.5625 -11.597656 101.5625 -23.84375 L 101.5625 -158.683594 L 107.035156 -158.683594 L 107.035156 -153.210938 L 87.789062 -153.210938 L 87.789062 -158.683594 L 93.265625 -158.683594 L 93.261719 -110.761719 L 93.570312 -92.257812 L 84.4375 -92.257812 L 82.914062 -95.246094 C 79.859375 -101.230469 75.902344 -105.558594 71.039062 -108.226562 C 66.015625 -110.984375 59.585938 -112.363281 51.753906 -112.363281 C 45.480469 -112.363281 40.058594 -111.277344 35.480469 -109.105469 C 31.03125 -106.996094 27.308594 -103.8125 24.3125 -99.558594 C 17.886719 -90.414062 14.671875 -76.332031 14.671875 -57.3125 C 14.671875 -38.503906 17.78125 -24.652344 24 -15.753906 C 26.871094 -11.648438 30.542969 -8.574219 35.011719 -6.527344 C 39.664062 -4.402344 45.242188 -3.335938 51.753906 -3.335938 C 59.519531 -3.335938 65.933594 -4.71875 71 -7.480469 C 75.847656 -10.125 79.800781 -14.625 82.855469 -20.976562 Z M 34.878906 -57.957031 C 34.878906 -42.800781 36.75 -32.171875 40.492188 -26.0625 C 42.085938 -23.457031 44.15625 -21.515625 46.699219 -20.234375 C 49.402344 -18.878906 52.726562 -18.199219 56.671875 -18.199219 C 61.300781 -18.199219 65.21875 -18.964844 68.429688 -20.5 C 71.457031 -21.945312 73.921875 -24.128906 75.824219 -27.046875 C 80.152344 -33.695312 82.316406 -44.425781 82.316406 -59.238281 C 82.316406 -73.429688 80.179688 -83.621094 75.90625 -89.8125 C 74.019531 -92.546875 71.578125 -94.59375 68.574219 -95.957031 C 65.375 -97.414062 61.476562 -98.140625 56.886719 -98.140625 C 52.917969 -98.140625 49.574219 -97.445312 46.855469 -96.054688 C 44.28125 -94.738281 42.183594 -92.734375 40.566406 -90.046875 C 36.777344 -83.75 34.878906 -73.054688 34.878906 -57.957031 Z M 23.929688 -57.957031 C 23.929688 -75.082031 26.347656 -87.660156 31.183594 -95.691406 C 33.878906 -100.167969 37.441406 -103.539062 41.871094 -105.804688 C 46.152344 -107.996094 51.160156 -109.089844 56.886719 -109.089844 C 63.058594 -109.089844 68.464844 -108.035156 73.105469 -105.925781 C 77.949219 -103.726562 81.882812 -100.425781 84.917969 -96.03125 C 90.480469 -87.96875 93.265625 -75.703125 93.265625 -59.238281 C 93.265625 -42.257812 90.507812 -29.535156 85 -21.074219 C 81.980469 -16.433594 78.03125 -12.949219 73.148438 -10.617188 C 68.445312 -8.371094 62.953125 -7.25 56.671875 -7.25 C 50.996094 -7.25 46.03125 -8.316406 41.785156 -10.453125 C 37.378906 -12.667969 33.835938 -15.964844 31.152344 -20.34375 C 26.339844 -28.207031 23.929688 -40.746094 23.929688 -57.957031 Z M 23.929688 -57.957031 "/></g></g></g><g fill="#000000" fill-opacity="1"><g transform="translate(31.848367, 825.749909)"><g><path d="M 38.390625 -133.984375 L 38.390625 -77.953125 L 122.4375 -77.953125 L 122.4375 -61.0625 L 38.390625 -61.0625 L 38.390625 0 L 17.96875 0 L 17.96875 -150.671875 L 125 -150.671875 L 125 -133.984375 Z M 38.390625 -133.984375 "/></g></g><g transform="translate(165.617694, 825.749909)"><g><path d="M 29.515625 -53.78125 C 29.515625 -40.519531 32.257812 -30.289062 37.75 -23.09375 C 43.238281 -15.894531 51.257812 -12.296875 61.8125 -12.296875 C 70.144531 -12.296875 76.820312 -13.96875 81.84375 -17.3125 C 86.875 -20.664062 90.28125 -24.910156 92.0625 -30.046875 L 108.96875 -25.234375 C 102.050781 -6.984375 86.332031 2.140625 61.8125 2.140625 C 44.695312 2.140625 31.664062 -2.953125 22.71875 -13.140625 C 13.769531 -23.335938 9.296875 -38.488281 9.296875 -58.59375 C 9.296875 -77.707031 13.769531 -92.359375 22.71875 -102.546875 C 31.664062 -112.742188 44.445312 -117.84375 61.0625 -117.84375 C 95.0625 -117.84375 112.0625 -97.347656 112.0625 -56.359375 L 112.0625 -53.78125 Z M 92.171875 -68.546875 C 91.109375 -80.734375 88.007812 -89.625 82.875 -95.21875 C 77.738281 -100.820312 70.359375 -103.625 60.734375 -103.625 C 51.398438 -103.625 44.003906 -100.503906 38.546875 -94.265625 C 33.097656 -88.023438 30.160156 -79.453125 29.734375 -68.546875 Z M 92.171875 -68.546875 "/></g></g><g transform="translate(287.410871, 825.749909)"><g><path d="M 14.75 0 L 14.75 -158.6875 L 34 -158.6875 L 34 0 Z M 14.75 0 "/></g></g><g transform="translate(336.063984, 825.749909)"><g><path d="M 14.65625 -140.296875 L 14.65625 -158.6875 L 33.890625 -158.6875 L 33.890625 -140.296875 Z M 14.65625 0 L 14.65625 -115.703125 L 33.890625 -115.703125 L 33.890625 0 Z M 14.65625 0 "/></g></g><g transform="translate(384.717098, 825.749909)"><g><path d="M 29.40625 -58.390625 C 29.40625 -42.984375 31.828125 -31.570312 36.671875 -24.15625 C 41.523438 -16.75 48.832031 -13.046875 58.59375 -13.046875 C 65.4375 -13.046875 71.15625 -14.898438 75.75 -18.609375 C 80.351562 -22.316406 83.191406 -28.019531 84.265625 -35.71875 L 103.71875 -34.4375 C 102.226562 -23.3125 97.488281 -14.429688 89.5 -7.796875 C 81.519531 -1.171875 71.398438 2.140625 59.140625 2.140625 C 42.953125 2.140625 30.597656 -2.972656 22.078125 -13.203125 C 13.554688 -23.429688 9.296875 -38.347656 9.296875 -57.953125 C 9.296875 -77.421875 13.570312 -92.269531 22.125 -102.5 C 30.6875 -112.726562 42.953125 -117.84375 58.921875 -117.84375 C 70.753906 -117.84375 80.570312 -114.773438 88.375 -108.640625 C 96.1875 -102.515625 101.085938 -94.066406 103.078125 -83.296875 L 83.296875 -81.796875 C 82.296875 -88.210938 79.765625 -93.3125 75.703125 -97.09375 C 71.640625 -100.875 65.867188 -102.765625 58.390625 -102.765625 C 48.191406 -102.765625 40.8125 -99.378906 36.25 -92.609375 C 31.6875 -85.835938 29.40625 -74.429688 29.40625 -58.390625 Z M 29.40625 -58.390625 "/></g></g><g transform="translate(494.213334, 825.749909)"><g><path d="M 14.65625 -140.296875 L 14.65625 -158.6875 L 33.890625 -158.6875 L 33.890625 -140.296875 Z M 14.65625 0 L 14.65625 -115.703125 L 33.890625 -115.703125 L 33.890625 0 Z M 14.65625 0 "/></g></g></g><g fill="#000000" fill-opacity="1"><g transform="translate(542.866433, 825.749909)"><g><path d="M 44.265625 2.140625 C 32.648438 2.140625 23.914062 -0.921875 18.0625 -7.046875 C 12.21875 -13.179688 9.296875 -21.597656 9.296875 -32.296875 C 9.296875 -44.273438 13.234375 -53.46875 21.109375 -59.875 C 28.992188 -66.289062 41.703125 -69.71875 59.234375 -70.15625 L 85.21875 -70.578125 L 85.21875 -76.890625 C 85.21875 -86.296875 83.222656 -93.03125 79.234375 -97.09375 C 75.242188 -101.15625 68.972656 -103.1875 60.421875 -103.1875 C 51.796875 -103.1875 45.519531 -101.722656 41.59375 -98.796875 C 37.675781 -95.878906 35.328125 -91.210938 34.546875 -84.796875 L 14.4375 -86.609375 C 17.71875 -107.429688 33.1875 -117.84375 60.84375 -117.84375 C 75.382812 -117.84375 86.328125 -114.507812 93.671875 -107.84375 C 101.015625 -101.175781 104.6875 -91.535156 104.6875 -78.921875 L 104.6875 -29.09375 C 104.6875 -23.382812 105.429688 -19.085938 106.921875 -16.203125 C 108.421875 -13.316406 111.273438 -11.875 115.484375 -11.875 C 117.335938 -11.875 119.441406 -12.125 121.796875 -12.625 L 121.796875 -0.640625 C 116.953125 0.492188 112 1.0625 106.9375 1.0625 C 99.800781 1.0625 94.613281 -0.804688 91.375 -4.546875 C 88.132812 -8.285156 86.300781 -14.148438 85.875 -22.140625 L 85.21875 -22.140625 C 80.300781 -13.296875 74.582031 -7.035156 68.0625 -3.359375 C 61.539062 0.304688 53.609375 2.140625 44.265625 2.140625 Z M 48.65625 -12.296875 C 55.707031 -12.296875 61.976562 -13.898438 67.46875 -17.109375 C 72.957031 -20.316406 77.285156 -24.71875 80.453125 -30.3125 C 83.628906 -35.90625 85.21875 -41.660156 85.21875 -47.578125 L 85.21875 -57.109375 L 64.15625 -56.671875 C 55.101562 -56.535156 48.242188 -55.609375 43.578125 -53.890625 C 38.910156 -52.179688 35.328125 -49.546875 32.828125 -45.984375 C 30.335938 -42.421875 29.09375 -37.75 29.09375 -31.96875 C 29.09375 -25.695312 30.785156 -20.847656 34.171875 -17.421875 C 37.554688 -14.003906 42.382812 -12.296875 48.65625 -12.296875 Z M 48.65625 -12.296875 "/></g></g></g><g fill="#000000" fill-opacity="1"><g transform="translate(664.65962, 825.749909)"><g/></g></g><g fill="#000000" fill-opacity="1"><g transform="translate(725.502724, 825.749909)"><g><path d="M 115.703125 0 L 35.078125 -128.328125 L 35.609375 -117.953125 L 36.140625 -100.09375 L 36.140625 0 L 17.96875 0 L 17.96875 -150.671875 L 41.703125 -150.671875 L 123.1875 -21.5 C 122.332031 -35.46875 121.90625 -45.585938 121.90625 -51.859375 L 121.90625 -150.671875 L 140.296875 -150.671875 L 140.296875 0 Z M 115.703125 0 "/></g></g></g><g fill="#000000" fill-opacity="1"><g transform="translate(883.65209, 825.749909)"><g><path d="M 14.65625 -140.296875 L 14.65625 -158.6875 L 33.890625 -158.6875 L 33.890625 -140.296875 Z M 14.65625 0 L 14.65625 -115.703125 L 33.890625 -115.703125 L 33.890625 0 Z M 14.65625 0 "/></g></g></g><g fill="#000000" fill-opacity="1"><g transform="translate(932.305132, 825.749909)"><g><path d="M 29.515625 -53.78125 C 29.515625 -40.519531 32.257812 -30.289062 37.75 -23.09375 C 43.238281 -15.894531 51.257812 -12.296875 61.8125 -12.296875 C 70.144531 -12.296875 76.820312 -13.96875 81.84375 -17.3125 C 86.875 -20.664062 90.28125 -24.910156 92.0625 -30.046875 L 108.96875 -25.234375 C 102.050781 -6.984375 86.332031 2.140625 61.8125 2.140625 C 44.695312 2.140625 31.664062 -2.953125 22.71875 -13.140625 C 13.769531 -23.335938 9.296875 -38.488281 9.296875 -58.59375 C 9.296875 -77.707031 13.769531 -92.359375 22.71875 -102.546875 C 31.664062 -112.742188 44.445312 -117.84375 61.0625 -117.84375 C 95.0625 -117.84375 112.0625 -97.347656 112.0625 -56.359375 L 112.0625 -53.78125 Z M 92.171875 -68.546875 C 91.109375 -80.734375 88.007812 -89.625 82.875 -95.21875 C 77.738281 -100.820312 70.359375 -103.625 60.734375 -103.625 C 51.398438 -103.625 44.003906 -100.503906 38.546875 -94.265625 C 33.097656 -88.023438 30.160156 -79.453125 29.734375 -68.546875 Z M 92.171875 -68.546875 "/></g></g></g><g fill="#000000" fill-opacity="1"><g transform="translate(1054.098365, 825.749909)"><g><path d="M 14.75 0 L 14.75 -158.6875 L 34 -158.6875 L 34 0 Z M 14.75 0 "/></g></g></g><g fill="#000000" fill-opacity="1"><g transform="translate(1102.751498, 825.749909)"><g><path d="M 44.265625 2.140625 C 32.648438 2.140625 23.914062 -0.921875 18.0625 -7.046875 C 12.21875 -13.179688 9.296875 -21.597656 9.296875 -32.296875 C 9.296875 -44.273438 13.234375 -53.46875 21.109375 -59.875 C 28.992188 -66.289062 41.703125 -69.71875 59.234375 -70.15625 L 85.21875 -70.578125 L 85.21875 -76.890625 C 85.21875 -86.296875 83.222656 -93.03125 79.234375 -97.09375 C 75.242188 -101.15625 68.972656 -103.1875 60.421875 -103.1875 C 51.796875 -103.1875 45.519531 -101.722656 41.59375 -98.796875 C 37.675781 -95.878906 35.328125 -91.210938 34.546875 -84.796875 L 14.4375 -86.609375 C 17.71875 -107.429688 33.1875 -117.84375 60.84375 -117.84375 C 75.382812 -117.84375 86.328125 -114.507812 93.671875 -107.84375 C 101.015625 -101.175781 104.6875 -91.535156 104.6875 -78.921875 L 104.6875 -29.09375 C 104.6875 -23.382812 105.429688 -19.085938 106.921875 -16.203125 C 108.421875 -13.316406 111.273438 -11.875 115.484375 -11.875 C 117.335938 -11.875 119.441406 -12.125 121.796875 -12.625 L 121.796875 -0.640625 C 116.953125 0.492188 112 1.0625 106.9375 1.0625 C 99.800781 1.0625 94.613281 -0.804688 91.375 -4.546875 C 88.132812 -8.285156 86.300781 -14.148438 85.875 -22.140625 L 85.21875 -22.140625 C 80.300781 -13.296875 74.582031 -7.035156 68.0625 -3.359375 C 61.539062 0.304688 53.609375 2.140625 44.265625 2.140625 Z M 48.65625 -12.296875 C 55.707031 -12.296875 61.976562 -13.898438 67.46875 -17.109375 C 72.957031 -20.316406 77.285156 -24.71875 80.453125 -30.3125 C 83.628906 -35.90625 85.21875 -41.660156 85.21875 -47.578125 L 85.21875 -57.109375 L 64.15625 -56.671875 C 55.101562 -56.535156 48.242188 -55.609375 43.578125 -53.890625 C 38.910156 -52.179688 35.328125 -49.546875 32.828125 -45.984375 C 30.335938 -42.421875 29.09375 -37.75 29.09375 -31.96875 C 29.09375 -25.695312 30.785156 -20.847656 34.171875 -17.421875 C 37.554688 -14.003906 42.382812 -12.296875 48.65625 -12.296875 Z M 48.65625 -12.296875 "/></g></g></g><g fill="#000000" fill-opacity="1"><g transform="translate(1224.54464, 825.749909)"><g><path d="M 88.21875 0 L 88.21875 -73.359375 C 88.21875 -80.984375 87.46875 -86.898438 85.96875 -91.109375 C 84.476562 -95.316406 82.09375 -98.347656 78.8125 -100.203125 C 75.53125 -102.054688 70.71875 -102.984375 64.375 -102.984375 C 55.101562 -102.984375 47.796875 -99.804688 42.453125 -93.453125 C 37.109375 -87.109375 34.4375 -78.304688 34.4375 -67.046875 L 34.4375 0 L 15.1875 0 L 15.1875 -91 C 15.1875 -104.476562 14.972656 -112.710938 14.546875 -115.703125 L 32.71875 -115.703125 C 32.789062 -115.347656 32.863281 -114.382812 32.9375 -112.8125 C 33.007812 -111.25 33.097656 -109.453125 33.203125 -107.421875 C 33.304688 -105.390625 33.429688 -101.554688 33.578125 -95.921875 L 33.890625 -95.921875 C 38.316406 -103.898438 43.429688 -109.546875 49.234375 -112.859375 C 55.046875 -116.179688 62.265625 -117.84375 70.890625 -117.84375 C 83.585938 -117.84375 92.875 -114.6875 98.75 -108.375 C 104.632812 -102.0625 107.578125 -91.632812 107.578125 -77.09375 L 107.578125 0 Z M 88.21875 0 "/></g></g></g><g fill="#000000" fill-opacity="1"><g transform="translate(1346.337781, 825.749909)"><g><path d="M 87.796875 -18.609375 C 84.234375 -11.191406 79.507812 -5.878906 73.625 -2.671875 C 67.738281 0.535156 60.445312 2.140625 51.75 2.140625 C 37.132812 2.140625 26.390625 -2.773438 19.515625 -12.609375 C 12.640625 -22.453125 9.203125 -37.351562 9.203125 -57.3125 C 9.203125 -97.664062 23.382812 -117.84375 51.75 -117.84375 C 60.519531 -117.84375 67.828125 -116.238281 73.671875 -113.03125 C 79.523438 -109.820312 84.234375 -104.722656 87.796875 -97.734375 L 88 -97.734375 L 87.796875 -110.671875 L 87.796875 -158.6875 L 107.046875 -158.6875 L 107.046875 -23.84375 C 107.046875 -11.800781 107.257812 -3.851562 107.6875 0 L 89.296875 0 C 89.078125 -1.144531 88.84375 -3.78125 88.59375 -7.90625 C 88.34375 -12.039062 88.21875 -15.609375 88.21875 -18.609375 Z M 29.40625 -57.953125 C 29.40625 -41.773438 31.539062 -30.191406 35.8125 -23.203125 C 40.09375 -16.210938 47.046875 -12.71875 56.671875 -12.71875 C 67.578125 -12.71875 75.488281 -16.492188 80.40625 -24.046875 C 85.332031 -31.609375 87.796875 -43.335938 87.796875 -59.234375 C 87.796875 -74.566406 85.332031 -85.796875 80.40625 -92.921875 C 75.488281 -100.054688 67.648438 -103.625 56.890625 -103.625 C 47.191406 -103.625 40.1875 -100.039062 35.875 -92.875 C 31.5625 -85.707031 29.40625 -74.066406 29.40625 -57.953125 Z M 29.40625 -57.953125 "/></g></g></g></svg>